<svg xmlns="http://www.w3.org/2000/svg" width="6em" viewBox="-0.04 -0.14 1.08 1.18"><title>BackOut</title><path fill="none" stroke="var(--main-color)" stroke-width=".02" d="M0,0 L0,1 M1,0 L1,1 M0,0 m0.1,0 l0.1,0 m0.1,0 l0.1,0 m0.1,0 l0.1,0 m0.1,0 l0.1,0 m0.1,0 l0.1,0 M0,1 m0.1,0 l0.1,0 m0.1,0 l0.1,0 m0.1,0 l0.1,0 m0.1,0 l0.1,0 m0.1,0 l0.1,0"/><polyline fill="none" stroke="red" stroke-width=".04" points="0 1 .01 .953 .02 .908 .03 .863 .04 .82 .051 .779 .061 .738 .071 .699 .081 .66 .091 .623 .101 .588 .111 .553 .121 .519 .131 .487 .141 .456 .152 .425 .162 .396 .172 .368 .182 .341 .192 .314 .202 .289 .212 .265 .222 .242 .232 .219 .242 .198 .253 .178 .263 .158 .273 .139 .283 .121 .293 .104 .303 .088 .313 .073 .323 .058 .333 .044 .343 .031 .354 .019 .364 .007 .374 -.004 .384 -.014 .394 -.024 .404 -.033 .414 -.041 .424 -.048 .434 -.055 .444 -.062 .455 -.068 .465 -.073 .475 -.078 .485 -.082 .495 -.086 .505 -.089 .515 -.092 .525 -.094 .535 -.096 .545 -.098 .556 -.099 .566 -.1 .576 -.1 .586 -.1 .596 -.1 .606 -.099 .616 -.098 .626 -.097 .636 -.095 .646 -.093 .657 -.091 .667 -.089 .677 -.087 .687 -.084 .697 -.081 .707 -.078 .717 -.075 .727 -.072 .737 -.068 .747 -.065 .758 -.062 .768 -.058 .778 -.054 .788 -.051 .798 -.047 .808 -.044 .818 -.04 .828 -.036 .838 -.033 .848 -.03 .859 -.026 .869 -.023 .879 -.02 .889 -.017 .899 -.015 .909 -.012 .919 -.01 .929 -.008 .939 -.006 .949 -.004 .96 -.003 .97 -.001 .98 -.001 .99 0 1 0"/></svg>