<svg xmlns="http://www.w3.org/2000/svg" width="6em" viewBox="-0.04 -0.179 1.08 1.359"><title>BackInOut</title><path fill="none" stroke="var(--main-color)" stroke-width=".02" d="M0,0 L0,1 M1,0 L1,1 M0,0 m0.1,0 l0.1,0 m0.1,0 l0.1,0 m0.1,0 l0.1,0 m0.1,0 l0.1,0 m0.1,0 l0.1,0 M0,1 m0.1,0 l0.1,0 m0.1,0 l0.1,0 m0.1,0 l0.1,0 m0.1,0 l0.1,0 m0.1,0 l0.1,0"/><polyline fill="none" stroke="red" stroke-width=".04" points="0 1 .01 1.001 .02 1.002 .03 1.005 .04 1.009 .051 1.014 .061 1.02 .071 1.026 .081 1.033 .091 1.041 .101 1.048 .111 1.056 .121 1.065 .131 1.073 .141 1.081 .152 1.089 .162 1.097 .172 1.105 .182 1.112 .192 1.118 .202 1.124 .212 1.129 .222 1.133 .232 1.136 .242 1.138 .253 1.139 .263 1.139 .273 1.137 .283 1.134 .293 1.129 .303 1.122 .313 1.114 .323 1.103 .333 1.091 .343 1.076 .354 1.06 .364 1.04 .374 1.019 .384 .995 .394 .968 .404 .938 .414 .906 .424 .871 .434 .832 .444 .79 .455 .746 .465 .697 .475 .645 .485 .59 .495 .531 .505 .469 .515 .41 .525 .355 .535 .303 .545 .254 .556 .21 .566 .168 .576 .129 .586 .094 .596 .062 .606 .032 .616 .005 .626 -.019 .636 -.04 .646 -.06 .657 -.076 .667 -.091 .677 -.103 .687 -.114 .697 -.122 .707 -.129 .717 -.134 .727 -.137 .737 -.139 .747 -.139 .758 -.138 .768 -.136 .778 -.133 .788 -.129 .798 -.124 .808 -.118 .818 -.112 .828 -.105 .838 -.097 .848 -.089 .859 -.081 .869 -.073 .879 -.065 .889 -.056 .899 -.048 .909 -.041 .919 -.033 .929 -.026 .939 -.02 .949 -.014 .96 -.009 .97 -.005 .98 -.002 .99 -.001 1 0"/></svg>