<svg xmlns="http://www.w3.org/2000/svg" width="6em" viewBox="-0.04 -0.04 1.08 1.18"><title>BackIn</title><path fill="none" stroke="var(--main-color)" stroke-width=".02" d="M0,0 L0,1 M1,0 L1,1 M0,0 m0.1,0 l0.1,0 m0.1,0 l0.1,0 m0.1,0 l0.1,0 m0.1,0 l0.1,0 m0.1,0 l0.1,0 M0,1 m0.1,0 l0.1,0 m0.1,0 l0.1,0 m0.1,0 l0.1,0 m0.1,0 l0.1,0 m0.1,0 l0.1,0"/><polyline fill="none" stroke="red" stroke-width=".04" points="0 1 .01 1 .02 1.001 .03 1.001 .04 1.003 .051 1.004 .061 1.006 .071 1.008 .081 1.01 .091 1.012 .101 1.015 .111 1.017 .121 1.02 .131 1.023 .141 1.026 .152 1.03 .162 1.033 .172 1.036 .182 1.04 .192 1.044 .202 1.047 .212 1.051 .222 1.054 .232 1.058 .242 1.062 .253 1.065 .263 1.068 .273 1.072 .283 1.075 .293 1.078 .303 1.081 .313 1.084 .323 1.087 .333 1.089 .343 1.091 .354 1.093 .364 1.095 .374 1.097 .384 1.098 .394 1.099 .404 1.1 .414 1.1 .424 1.1 .434 1.1 .444 1.099 .455 1.098 .465 1.096 .475 1.094 .485 1.092 .495 1.089 .505 1.086 .515 1.082 .525 1.078 .535 1.073 .545 1.068 .556 1.062 .566 1.055 .576 1.048 .586 1.041 .596 1.033 .606 1.024 .616 1.014 .626 1.004 .636 .993 .646 .981 .657 .969 .667 .956 .677 .942 .687 .927 .697 .912 .707 .896 .717 .879 .727 .861 .737 .842 .747 .822 .758 .802 .768 .781 .778 .758 .788 .735 .798 .711 .808 .686 .818 .659 .828 .632 .838 .604 .848 .575 .859 .544 .869 .513 .879 .481 .889 .447 .899 .412 .909 .377 .919 .34 .929 .301 .939 .262 .949 .221 .96 .18 .97 .137 .98 .092 .99 .047 1 0"/></svg>