<svg xmlns="http://www.w3.org/2000/svg" width="6em" viewBox="-0.04 -0.04 1.08 1.08"><title>BothSteps(4, Both)</title><path fill="none" stroke="var(--main-color)" stroke-width=".02" d="M0,0 L0,1 M1,0 L1,1 M0,0 m0.1,0 l0.1,0 m0.1,0 l0.1,0 m0.1,0 l0.1,0 m0.1,0 l0.1,0 m0.1,0 l0.1,0 M0,1 m0.1,0 l0.1,0 m0.1,0 l0.1,0 m0.1,0 l0.1,0 m0.1,0 l0.1,0 m0.1,0 l0.1,0"/><polyline fill="none" stroke="red" stroke-width=".04" points="0 .8 .01 .8 .02 .8 .03 .8 .04 .8 .051 .8 .061 .8 .071 .8 .081 .8 .091 .8 .101 .8 .111 .8 .121 .8 .131 .8 .141 .8 .152 .8 .162 .8 .172 .8 .182 .8 .192 .8 .202 .8 .212 .8 .222 .8 .232 .8 .242 .8 .253 .6 .263 .6 .273 .6 .283 .6 .293 .6 .303 .6 .313 .6 .323 .6 .333 .6 .343 .6 .354 .6 .364 .6 .374 .6 .384 .6 .394 .6 .404 .6 .414 .6 .424 .6 .434 .6 .444 .6 .455 .6 .465 .6 .475 .6 .485 .6 .495 .6 .505 .4 .515 .4 .525 .4 .535 .4 .545 .4 .556 .4 .566 .4 .576 .4 .586 .4 .596 .4 .606 .4 .616 .4 .626 .4 .636 .4 .646 .4 .657 .4 .667 .4 .677 .4 .687 .4 .697 .4 .707 .4 .717 .4 .727 .4 .737 .4 .747 .4 .758 .2 .768 .2 .778 .2 .788 .2 .798 .2 .808 .2 .818 .2 .828 .2 .838 .2 .848 .2 .859 .2 .869 .2 .879 .2 .889 .2 .899 .2 .909 .2 .919 .2 .929 .2 .939 .2 .949 .2 .96 .2 .97 .2 .98 .2 .99 .2 1 0"/></svg>