<svg xmlns="http://www.w3.org/2000/svg" width="6em" viewBox="-0.04 -0.04 1.08 1.08"><title>BounceIn</title><path fill="none" stroke="var(--main-color)" stroke-width=".02" d="M0,0 L0,1 M1,0 L1,1 M0,0 m0.1,0 l0.1,0 m0.1,0 l0.1,0 m0.1,0 l0.1,0 m0.1,0 l0.1,0 m0.1,0 l0.1,0 M0,1 m0.1,0 l0.1,0 m0.1,0 l0.1,0 m0.1,0 l0.1,0 m0.1,0 l0.1,0 m0.1,0 l0.1,0"/><polyline fill="none" stroke="red" stroke-width=".04" points="0 1 .01 .99 .02 .983 .03 .977 .04 .974 .051 .973 .061 .974 .071 .978 .081 .983 .091 .991 .101 .998 .111 .978 .121 .961 .131 .947 .141 .934 .152 .925 .162 .917 .172 .913 .182 .91 .192 .91 .202 .913 .212 .918 .222 .926 .232 .935 .242 .948 .253 .963 .263 .98 .273 1 .283 .968 .293 .937 .303 .908 .313 .881 .323 .856 .333 .833 .343 .812 .354 .793 .364 .775 .374 .759 .384 .745 .394 .733 .404 .723 .414 .715 .424 .708 .434 .704 .444 .701 .455 .7 .465 .701 .475 .704 .485 .708 .495 .715 .505 .723 .515 .733 .525 .745 .535 .759 .545 .775 .556 .793 .566 .812 .576 .833 .586 .856 .596 .881 .606 .908 .616 .937 .626 .968 .636 1 .646 .945 .657 .892 .667 .84 .677 .79 .687 .742 .697 .694 .707 .649 .717 .605 .727 .562 .737 .522 .747 .482 .758 .444 .768 .408 .778 .373 .788 .34 .798 .309 .808 .279 .818 .25 .828 .223 .838 .198 .848 .174 .859 .151 .869 .13 .879 .111 .889 .093 .899 .077 .909 .062 .919 .049 .929 .038 .939 .028 .949 .019 .96 .012 .97 .007 .98 .003 .99 .001 1 0"/></svg>