<svg xmlns="http://www.w3.org/2000/svg" width="6em" viewBox="-0.04 -0.04 1.08 1.08"><title>BounceInOut</title><path fill="none" stroke="var(--main-color)" stroke-width=".02" d="M0,0 L0,1 M1,0 L1,1 M0,0 m0.1,0 l0.1,0 m0.1,0 l0.1,0 m0.1,0 l0.1,0 m0.1,0 l0.1,0 m0.1,0 l0.1,0 M0,1 m0.1,0 l0.1,0 m0.1,0 l0.1,0 m0.1,0 l0.1,0 m0.1,0 l0.1,0 m0.1,0 l0.1,0"/><polyline fill="none" stroke="red" stroke-width=".04" points="0 1 .01 .991 .02 .987 .03 .987 .04 .992 .051 .999 .061 .981 .071 .967 .081 .959 .091 .955 .101 .956 .111 .963 .121 .974 .131 .99 .141 .984 .152 .954 .162 .928 .172 .906 .182 .888 .192 .873 .202 .862 .212 .854 .222 .85 .232 .85 .242 .854 .253 .862 .263 .873 .273 .888 .283 .906 .293 .928 .303 .954 .313 .984 .323 .973 .333 .92 .343 .871 .354 .824 .364 .781 .374 .741 .384 .704 .394 .67 .404 .639 .414 .611 .424 .587 .434 .565 .444 .547 .455 .531 .465 .519 .475 .51 .485 .503 .495 .5 .505 .5 .515 .497 .525 .49 .535 .481 .545 .469 .556 .453 .566 .435 .576 .413 .586 .389 .596 .361 .606 .33 .616 .296 .626 .259 .636 .219 .646 .176 .657 .129 .667 .08 .677 .027 .687 .016 .697 .046 .707 .072 .717 .094 .727 .113 .737 .127 .747 .138 .758 .146 .768 .15 .778 .15 .788 .146 .798 .138 .808 .127 .818 .112 .828 .094 .838 .072 .848 .046 .859 .016 .869 .01 .879 .026 .889 .037 .899 .044 .909 .045 .919 .041 .929 .033 .939 .019 .949 .001 .96 .008 .97 .013 .98 .013 .99 .009 1 0"/></svg>