<svg xmlns="http://www.w3.org/2000/svg" width="6em" viewBox="-0.04 -0.04 1.08 1.08"><title>BounceOut</title><path fill="none" stroke="var(--main-color)" stroke-width=".02" d="M0,0 L0,1 M1,0 L1,1 M0,0 m0.1,0 l0.1,0 m0.1,0 l0.1,0 m0.1,0 l0.1,0 m0.1,0 l0.1,0 m0.1,0 l0.1,0 M0,1 m0.1,0 l0.1,0 m0.1,0 l0.1,0 m0.1,0 l0.1,0 m0.1,0 l0.1,0 m0.1,0 l0.1,0"/><polyline fill="none" stroke="red" stroke-width=".04" points="0 1 .01 .999 .02 .997 .03 .993 .04 .988 .051 .981 .061 .972 .071 .962 .081 .951 .091 .938 .101 .923 .111 .907 .121 .889 .131 .87 .141 .849 .152 .826 .162 .802 .172 .777 .182 .75 .192 .721 .202 .691 .212 .66 .222 .627 .232 .592 .242 .556 .253 .518 .263 .478 .273 .438 .283 .395 .293 .351 .303 .306 .313 .258 .323 .21 .333 .16 .343 .108 .354 .055 .364 0 .374 .032 .384 .063 .394 .092 .404 .119 .414 .144 .424 .167 .434 .188 .444 .207 .455 .225 .465 .241 .475 .255 .485 .267 .495 .277 .505 .285 .515 .292 .525 .296 .535 .299 .545 .3 .556 .299 .566 .296 .576 .292 .586 .285 .596 .277 .606 .267 .616 .255 .626 .241 .636 .225 .646 .207 .657 .188 .667 .167 .677 .144 .687 .119 .697 .092 .707 .063 .717 .032 .727 0 .737 .02 .747 .037 .758 .052 .768 .065 .778 .074 .788 .082 .798 .087 .808 .09 .818 .09 .828 .087 .838 .083 .848 .075 .859 .066 .869 .053 .879 .039 .889 .022 .899 .002 .909 .009 .919 .017 .929 .022 .939 .026 .949 .027 .96 .026 .97 .023 .98 .017 .99 .01 1 0"/></svg>