<svg xmlns="http://www.w3.org/2000/svg" width="6em" viewBox="-0.04 -0.04 1.08 1.08"><title>CircularOut</title><path fill="none" stroke="var(--main-color)" stroke-width=".02" d="M0,0 L0,1 M1,0 L1,1 M0,0 m0.1,0 l0.1,0 m0.1,0 l0.1,0 m0.1,0 l0.1,0 m0.1,0 l0.1,0 m0.1,0 l0.1,0 M0,1 m0.1,0 l0.1,0 m0.1,0 l0.1,0 m0.1,0 l0.1,0 m0.1,0 l0.1,0 m0.1,0 l0.1,0"/><polyline fill="none" stroke="red" stroke-width=".04" points="0 1 .01 .858 .02 .8 .03 .756 .04 .719 .051 .686 .061 .657 .071 .631 .081 .606 .091 .583 .101 .562 .111 .542 .121 .523 .131 .505 .141 .487 .152 .471 .162 .455 .172 .44 .182 .425 .192 .411 .202 .397 .212 .384 .222 .371 .232 .359 .242 .347 .253 .336 .263 .325 .273 .314 .283 .303 .293 .293 .303 .283 .313 .273 .323 .264 .333 .255 .343 .246 .354 .237 .364 .229 .374 .22 .384 .212 .394 .205 .404 .197 .414 .19 .424 .182 .434 .175 .444 .169 .455 .162 .465 .155 .475 .149 .485 .143 .495 .137 .505 .131 .515 .125 .525 .12 .535 .115 .545 .109 .556 .104 .566 .099 .576 .094 .586 .09 .596 .085 .606 .081 .616 .077 .626 .072 .636 .068 .646 .065 .657 .061 .667 .057 .677 .054 .687 .05 .697 .047 .707 .044 .717 .041 .727 .038 .737 .035 .747 .032 .758 .03 .768 .027 .778 .025 .788 .023 .798 .021 .808 .019 .818 .017 .828 .015 .838 .013 .848 .012 .859 .01 .869 .009 .879 .007 .889 .006 .899 .005 .909 .004 .919 .003 .929 .003 .939 .002 .949 .001 .96 .001 .97 0 .98 0 .99 0 1 0"/></svg>