<svg xmlns="http://www.w3.org/2000/svg" width="6em" viewBox="-0.04 -0.04 1.08 1.08"><title>CircularIn</title><path fill="none" stroke="var(--main-color)" stroke-width=".02" d="M0,0 L0,1 M1,0 L1,1 M0,0 m0.1,0 l0.1,0 m0.1,0 l0.1,0 m0.1,0 l0.1,0 m0.1,0 l0.1,0 m0.1,0 l0.1,0 M0,1 m0.1,0 l0.1,0 m0.1,0 l0.1,0 m0.1,0 l0.1,0 m0.1,0 l0.1,0 m0.1,0 l0.1,0"/><polyline fill="none" stroke="red" stroke-width=".04" points="0 1 .01 1 .02 1 .03 1 .04 .999 .051 .999 .061 .998 .071 .997 .081 .997 .091 .996 .101 .995 .111 .994 .121 .993 .131 .991 .141 .99 .152 .988 .162 .987 .172 .985 .182 .983 .192 .981 .202 .979 .212 .977 .222 .975 .232 .973 .242 .97 .253 .968 .263 .965 .273 .962 .283 .959 .293 .956 .303 .953 .313 .95 .323 .946 .333 .943 .343 .939 .354 .935 .364 .932 .374 .928 .384 .923 .394 .919 .404 .915 .414 .91 .424 .906 .434 .901 .444 .896 .455 .891 .465 .885 .475 .88 .485 .875 .495 .869 .505 .863 .515 .857 .525 .851 .535 .845 .545 .838 .556 .831 .566 .825 .576 .818 .586 .81 .596 .803 .606 .795 .616 .788 .626 .78 .636 .771 .646 .763 .657 .754 .667 .745 .677 .736 .687 .727 .697 .717 .707 .707 .717 .697 .727 .686 .737 .675 .747 .664 .758 .653 .768 .641 .778 .629 .788 .616 .798 .603 .808 .589 .818 .575 .828 .56 .838 .545 .848 .529 .859 .513 .869 .495 .879 .477 .889 .458 .899 .438 .909 .417 .919 .394 .929 .369 .939 .343 .949 .314 .96 .281 .97 .244 .98 .2 .99 .142 1 0"/></svg>