<svg xmlns="http://www.w3.org/2000/svg" width="6em" viewBox="-0.04 -0.04 1.08 1.08"><title>CircularInOut</title><path fill="none" stroke="var(--main-color)" stroke-width=".02" d="M0,0 L0,1 M1,0 L1,1 M0,0 m0.1,0 l0.1,0 m0.1,0 l0.1,0 m0.1,0 l0.1,0 m0.1,0 l0.1,0 m0.1,0 l0.1,0 M0,1 m0.1,0 l0.1,0 m0.1,0 l0.1,0 m0.1,0 l0.1,0 m0.1,0 l0.1,0 m0.1,0 l0.1,0"/><polyline fill="none" stroke="red" stroke-width=".04" points="0 1 .01 1 .02 1 .03 .999 .04 .998 .051 .997 .061 .996 .071 .995 .081 .993 .091 .992 .101 .99 .111 .987 .121 .985 .131 .982 .141 .98 .152 .976 .162 .973 .172 .97 .182 .966 .192 .962 .202 .957 .212 .953 .222 .948 .232 .943 .242 .937 .253 .932 .263 .925 .273 .919 .283 .912 .293 .905 .303 .898 .313 .89 .323 .881 .333 .873 .343 .863 .354 .854 .364 .843 .374 .832 .384 .82 .394 .808 .404 .795 .414 .78 .424 .765 .434 .748 .444 .729 .455 .708 .465 .685 .475 .657 .485 .622 .495 .571 .505 .429 .515 .378 .525 .343 .535 .315 .545 .292 .556 .271 .566 .252 .576 .235 .586 .22 .596 .205 .606 .192 .616 .18 .626 .168 .636 .157 .646 .146 .657 .137 .667 .127 .677 .119 .687 .11 .697 .102 .707 .095 .717 .088 .727 .081 .737 .075 .747 .068 .758 .063 .768 .057 .778 .052 .788 .047 .798 .043 .808 .038 .818 .034 .828 .03 .838 .027 .848 .024 .859 .02 .869 .018 .879 .015 .889 .013 .899 .01 .909 .008 .919 .007 .929 .005 .939 .004 .949 .003 .96 .002 .97 .001 .98 0 .99 0 1 0"/></svg>