<svg xmlns="http://www.w3.org/2000/svg" width="6em" viewBox="-0.04 -0.04 1.08 1.08"><title>CubicInOut</title><path fill="none" stroke="var(--main-color)" stroke-width=".02" d="M0,0 L0,1 M1,0 L1,1 M0,0 m0.1,0 l0.1,0 m0.1,0 l0.1,0 m0.1,0 l0.1,0 m0.1,0 l0.1,0 m0.1,0 l0.1,0 M0,1 m0.1,0 l0.1,0 m0.1,0 l0.1,0 m0.1,0 l0.1,0 m0.1,0 l0.1,0 m0.1,0 l0.1,0"/><polyline fill="none" stroke="red" stroke-width=".04" points="0 1 .01 1 .02 1 .03 1 .04 1 .051 .999 .061 .999 .071 .999 .081 .998 .091 .997 .101 .996 .111 .995 .121 .993 .131 .991 .141 .989 .152 .986 .162 .983 .172 .98 .182 .976 .192 .972 .202 .967 .212 .962 .222 .956 .232 .95 .242 .943 .253 .936 .263 .928 .273 .919 .283 .91 .293 .899 .303 .889 .313 .877 .323 .865 .333 .852 .343 .838 .354 .823 .364 .808 .374 .791 .384 .774 .394 .755 .404 .736 .414 .716 .424 .695 .434 .672 .444 .649 .455 .624 .465 .599 .475 .572 .485 .544 .495 .515 .505 .485 .515 .456 .525 .428 .535 .401 .545 .376 .556 .351 .566 .328 .576 .305 .586 .284 .596 .264 .606 .245 .616 .226 .626 .209 .636 .192 .646 .177 .657 .162 .667 .148 .677 .135 .687 .123 .697 .111 .707 .101 .717 .09 .727 .081 .737 .072 .747 .064 .758 .057 .768 .05 .778 .044 .788 .038 .798 .033 .808 .028 .818 .024 .828 .02 .838 .017 .848 .014 .859 .011 .869 .009 .879 .007 .889 .005 .899 .004 .909 .003 .919 .002 .929 .001 .939 .001 .949 .001 .96 0 .97 0 .98 0 .99 0 1 0"/></svg>