<svg xmlns="http://www.w3.org/2000/svg" width="6em" viewBox="-0.04 -0.04 1.08 1.08"><title>CubicOut</title><path fill="none" stroke="var(--main-color)" stroke-width=".02" d="M0,0 L0,1 M1,0 L1,1 M0,0 m0.1,0 l0.1,0 m0.1,0 l0.1,0 m0.1,0 l0.1,0 m0.1,0 l0.1,0 m0.1,0 l0.1,0 M0,1 m0.1,0 l0.1,0 m0.1,0 l0.1,0 m0.1,0 l0.1,0 m0.1,0 l0.1,0 m0.1,0 l0.1,0"/><polyline fill="none" stroke="red" stroke-width=".04" points="0 1 .01 .97 .02 .941 .03 .912 .04 .884 .051 .856 .061 .829 .071 .803 .081 .777 .091 .751 .101 .727 .111 .702 .121 .679 .131 .656 .141 .633 .152 .611 .162 .589 .172 .568 .182 .548 .192 .528 .202 .508 .212 .489 .222 .471 .232 .452 .242 .435 .253 .418 .263 .401 .273 .385 .283 .369 .293 .353 .303 .339 .313 .324 .323 .31 .333 .296 .343 .283 .354 .27 .364 .258 .374 .246 .384 .234 .394 .223 .404 .212 .414 .201 .424 .191 .434 .181 .444 .171 .455 .162 .465 .153 .475 .145 .485 .137 .495 .129 .505 .121 .515 .114 .525 .107 .535 .1 .545 .094 .556 .088 .566 .082 .576 .076 .586 .071 .596 .066 .606 .061 .616 .057 .626 .052 .636 .048 .646 .044 .657 .041 .667 .037 .677 .034 .687 .031 .697 .028 .707 .025 .717 .023 .727 .02 .737 .018 .747 .016 .758 .014 .768 .013 .778 .011 .788 .01 .798 .008 .808 .007 .818 .006 .828 .005 .838 .004 .848 .003 .859 .003 .869 .002 .879 .002 .889 .001 .899 .001 .909 .001 .919 .001 .929 0 .939 0 .949 0 .96 0 .97 0 .98 0 .99 0 1 0"/></svg>