<svg xmlns="http://www.w3.org/2000/svg" width="6em" viewBox="-0.04 -0.04 1.08 1.08"><title>CubicIn</title><path fill="none" stroke="var(--main-color)" stroke-width=".02" d="M0,0 L0,1 M1,0 L1,1 M0,0 m0.1,0 l0.1,0 m0.1,0 l0.1,0 m0.1,0 l0.1,0 m0.1,0 l0.1,0 m0.1,0 l0.1,0 M0,1 m0.1,0 l0.1,0 m0.1,0 l0.1,0 m0.1,0 l0.1,0 m0.1,0 l0.1,0 m0.1,0 l0.1,0"/><polyline fill="none" stroke="red" stroke-width=".04" points="0 1 .01 1 .02 1 .03 1 .04 1 .051 1 .061 1 .071 1 .081 .999 .091 .999 .101 .999 .111 .999 .121 .998 .131 .998 .141 .997 .152 .997 .162 .996 .172 .995 .182 .994 .192 .993 .202 .992 .212 .99 .222 .989 .232 .987 .242 .986 .253 .984 .263 .982 .273 .98 .283 .977 .293 .975 .303 .972 .313 .969 .323 .966 .333 .963 .343 .959 .354 .956 .364 .952 .374 .948 .384 .943 .394 .939 .404 .934 .414 .929 .424 .924 .434 .918 .444 .912 .455 .906 .465 .9 .475 .893 .485 .886 .495 .879 .505 .871 .515 .863 .525 .855 .535 .847 .545 .838 .556 .829 .566 .819 .576 .809 .586 .799 .596 .788 .606 .777 .616 .766 .626 .754 .636 .742 .646 .73 .657 .717 .667 .704 .677 .69 .687 .676 .697 .661 .707 .647 .717 .631 .727 .615 .737 .599 .747 .582 .758 .565 .768 .548 .778 .529 .788 .511 .798 .492 .808 .472 .818 .452 .828 .432 .838 .411 .848 .389 .859 .367 .869 .344 .879 .321 .889 .298 .899 .273 .909 .249 .919 .223 .929 .197 .939 .171 .949 .144 .96 .116 .97 .088 .98 .059 .99 .03 1 0"/></svg>