<svg xmlns="http://www.w3.org/2000/svg" width="6em" viewBox="-0.04 -0.04 1.08 1.452"><title>ElasticIn</title><path fill="none" stroke="var(--main-color)" stroke-width=".02" d="M0,0 L0,1 M1,0 L1,1 M0,0 m0.1,0 l0.1,0 m0.1,0 l0.1,0 m0.1,0 l0.1,0 m0.1,0 l0.1,0 m0.1,0 l0.1,0 M0,1 m0.1,0 l0.1,0 m0.1,0 l0.1,0 m0.1,0 l0.1,0 m0.1,0 l0.1,0 m0.1,0 l0.1,0"/><polyline fill="none" stroke="red" stroke-width=".04" points="0 1 .01 1 .02 1 .03 1 .04 1 .051 .999 .061 .999 .071 .999 .081 .998 .091 .998 .101 .998 .111 .998 .121 .998 .131 .998 .141 .998 .152 .999 .162 .999 .172 1 .182 1 .192 1.001 .202 1.002 .212 1.003 .222 1.004 .232 1.005 .242 1.005 .253 1.006 .263 1.006 .273 1.006 .283 1.005 .293 1.005 .303 1.004 .313 1.002 .323 1 .333 .998 .343 .996 .354 .994 .364 .991 .374 .989 .384 .987 .394 .985 .404 .984 .414 .984 .424 .984 .434 .985 .444 .987 .455 .991 .465 .995 .475 1 .485 1.006 .495 1.012 .505 1.019 .515 1.026 .525 1.032 .535 1.038 .545 1.043 .556 1.046 .566 1.047 .576 1.045 .586 1.041 .596 1.035 .606 1.025 .616 1.013 .626 .998 .636 .981 .646 .963 .657 .943 .667 .924 .677 .906 .687 .89 .697 .878 .707 .87 .717 .868 .727 .873 .737 .885 .747 .905 .758 .934 .768 .969 .778 1.012 .788 1.061 .798 1.114 .808 1.169 .818 1.223 .828 1.273 .838 1.317 .848 1.35 .859 1.369 .869 1.372 .879 1.356 .889 1.318 .899 1.257 .909 1.174 .919 1.069 .929 .945 .939 .805 .949 .654 .96 .499 .97 .347 .98 .207 .99 .088 1 0"/></svg>