<svg xmlns="http://www.w3.org/2000/svg" width="6em" viewBox="-0.04 -0.158 1.08 1.317"><title>ElasticInOut</title><path fill="none" stroke="var(--main-color)" stroke-width=".02" d="M0,0 L0,1 M1,0 L1,1 M0,0 m0.1,0 l0.1,0 m0.1,0 l0.1,0 m0.1,0 l0.1,0 m0.1,0 l0.1,0 m0.1,0 l0.1,0 M0,1 m0.1,0 l0.1,0 m0.1,0 l0.1,0 m0.1,0 l0.1,0 m0.1,0 l0.1,0 m0.1,0 l0.1,0"/><polyline fill="none" stroke="red" stroke-width=".04" points="0 1 .01 1 .02 1 .03 .999 .04 .999 .051 .999 .061 .999 .071 .999 .081 .999 .091 .999 .101 1 .111 1 .121 1.001 .131 1.002 .141 1.003 .152 1.004 .162 1.005 .172 1.005 .182 1.005 .192 1.005 .202 1.004 .212 1.002 .222 .999 .232 .995 .242 .991 .253 .987 .263 .982 .273 .979 .283 .976 .293 .975 .303 .977 .313 .982 .323 .99 .333 1.003 .343 1.019 .354 1.038 .364 1.059 .374 1.081 .384 1.099 .394 1.113 .404 1.118 .414 1.112 .424 1.091 .434 1.052 .444 .996 .455 .921 .465 .831 .475 .732 .485 .63 .495 .538 .505 .462 .515 .37 .525 .268 .535 .169 .545 .079 .556 .004 .566 -.052 .576 -.091 .586 -.112 .596 -.118 .606 -.113 .616 -.099 .626 -.081 .636 -.059 .646 -.038 .657 -.019 .667 -.003 .677 .01 .687 .018 .697 .023 .707 .025 .717 .024 .727 .021 .737 .018 .747 .013 .758 .009 .768 .005 .778 .001 .788 -.002 .798 -.004 .808 -.005 .818 -.005 .828 -.005 .838 -.005 .848 -.004 .859 -.003 .869 -.002 .879 -.001 .889 0 .899 0 .909 .001 .919 .001 .929 .001 .939 .001 .949 .001 .96 .001 .97 .001 .98 0 .99 0 1 0"/></svg>