<svg xmlns="http://www.w3.org/2000/svg" width="6em" viewBox="-0.04 -0.913 1.08 1.953"><title>Elastic(50.0)</title><path fill="none" stroke="var(--main-color)" stroke-width=".02" d="M0,0 L0,1 M1,0 L1,1 M0,0 m0.1,0 l0.1,0 m0.1,0 l0.1,0 m0.1,0 l0.1,0 m0.1,0 l0.1,0 m0.1,0 l0.1,0 M0,1 m0.1,0 l0.1,0 m0.1,0 l0.1,0 m0.1,0 l0.1,0 m0.1,0 l0.1,0 m0.1,0 l0.1,0"/><polyline fill="none" stroke="red" stroke-width=".04" points="0 1 .01 .877 .02 .543 .03 .09 .04 -.367 .051 -.715 .061 -.873 .071 -.811 .081 -.552 .091 -.17 .101 .238 .111 .569 .121 .746 .131 .733 .141 .541 .152 .225 .162 -.131 .172 -.438 .182 -.624 .192 -.648 .202 -.513 .212 -.259 .222 .046 .232 .324 .242 .508 .253 .559 .263 .471 .273 .273 .283 .018 .293 -.226 .303 -.402 .313 -.47 .323 -.42 .333 -.27 .343 -.063 .354 .147 .364 .308 .374 .384 .384 .363 .394 .254 .404 .091 .414 -.084 .424 -.227 .434 -.305 .444 -.303 .455 -.228 .465 -.104 .475 .037 .485 .159 .495 .233 .505 .244 .515 .196 .525 .104 .535 -.005 .545 -.104 .556 -.17 .566 -.189 .576 -.16 .586 -.096 .596 -.014 .606 .063 .616 .118 .626 .138 .636 .124 .646 .081 .657 .023 .667 -.034 .677 -.076 .687 -.095 .697 -.089 .707 -.062 .717 -.024 .727 .014 .737 .044 .747 .06 .758 .058 .768 .043 .778 .02 .788 -.004 .798 -.023 .808 -.033 .818 -.033 .828 -.025 .838 -.013 .848 -.001 .859 .009 .869 .014 .879 .015 .889 .011 .899 .006 .909 .001 .919 -.002 .929 -.004 .939 -.004 .949 -.002 .96 -.001 .97 0 .98 0 .99 0 1 0"/></svg>