<svg xmlns="http://www.w3.org/2000/svg" width="6em" viewBox="-0.04 -0.412 1.08 1.452"><title>ElasticOut</title><path fill="none" stroke="var(--main-color)" stroke-width=".02" d="M0,0 L0,1 M1,0 L1,1 M0,0 m0.1,0 l0.1,0 m0.1,0 l0.1,0 m0.1,0 l0.1,0 m0.1,0 l0.1,0 m0.1,0 l0.1,0 M0,1 m0.1,0 l0.1,0 m0.1,0 l0.1,0 m0.1,0 l0.1,0 m0.1,0 l0.1,0 m0.1,0 l0.1,0"/><polyline fill="none" stroke="red" stroke-width=".04" points="0 1 .01 .912 .02 .793 .03 .653 .04 .501 .051 .346 .061 .195 .071 .055 .081 -.069 .091 -.174 .101 -.257 .111 -.318 .121 -.356 .131 -.372 .141 -.369 .152 -.35 .162 -.317 .172 -.273 .182 -.223 .192 -.169 .202 -.114 .212 -.061 .222 -.012 .232 .031 .242 .066 .253 .095 .263 .115 .273 .127 .283 .132 .293 .13 .303 .122 .313 .11 .323 .094 .333 .076 .343 .057 .354 .037 .364 .019 .374 .002 .384 -.013 .394 -.025 .404 -.035 .414 -.041 .424 -.045 .434 -.047 .444 -.046 .455 -.043 .465 -.038 .475 -.032 .485 -.026 .495 -.019 .505 -.012 .515 -.006 .525 0 .535 .005 .545 .009 .556 .013 .566 .015 .576 .016 .586 .016 .596 .016 .606 .015 .616 .013 .626 .011 .636 .009 .646 .006 .657 .004 .667 .002 .677 0 .687 -.002 .697 -.004 .707 -.005 .717 -.005 .727 -.006 .737 -.006 .747 -.006 .758 -.005 .768 -.005 .778 -.004 .788 -.003 .798 -.002 .808 -.001 .818 0 .828 0 .838 .001 .848 .001 .859 .002 .869 .002 .879 .002 .889 .002 .899 .002 .909 .002 .919 .002 .929 .001 .939 .001 .949 .001 .96 0 .97 0 .98 0 .99 0 1 0"/></svg>