<svg xmlns="http://www.w3.org/2000/svg" width="6em" viewBox="-0.04 -0.04 1.08 1.08"><title>EndSteps(4, End)</title><path fill="none" stroke="var(--main-color)" stroke-width=".02" d="M0,0 L0,1 M1,0 L1,1 M0,0 m0.1,0 l0.1,0 m0.1,0 l0.1,0 m0.1,0 l0.1,0 m0.1,0 l0.1,0 m0.1,0 l0.1,0 M0,1 m0.1,0 l0.1,0 m0.1,0 l0.1,0 m0.1,0 l0.1,0 m0.1,0 l0.1,0 m0.1,0 l0.1,0"/><polyline fill="none" stroke="red" stroke-width=".04" points="0 1 .01 1 .02 1 .03 1 .04 1 .051 1 .061 1 .071 1 .081 1 .091 1 .101 1 .111 1 .121 1 .131 1 .141 1 .152 1 .162 1 .172 1 .182 1 .192 1 .202 1 .212 1 .222 1 .232 1 .242 1 .253 .75 .263 .75 .273 .75 .283 .75 .293 .75 .303 .75 .313 .75 .323 .75 .333 .75 .343 .75 .354 .75 .364 .75 .374 .75 .384 .75 .394 .75 .404 .75 .414 .75 .424 .75 .434 .75 .444 .75 .455 .75 .465 .75 .475 .75 .485 .75 .495 .75 .505 .5 .515 .5 .525 .5 .535 .5 .545 .5 .556 .5 .566 .5 .576 .5 .586 .5 .596 .5 .606 .5 .616 .5 .626 .5 .636 .5 .646 .5 .657 .5 .667 .5 .677 .5 .687 .5 .697 .5 .707 .5 .717 .5 .727 .5 .737 .5 .747 .5 .758 .25 .768 .25 .778 .25 .788 .25 .798 .25 .808 .25 .818 .25 .828 .25 .838 .25 .848 .25 .859 .25 .869 .25 .879 .25 .889 .25 .899 .25 .909 .25 .919 .25 .929 .25 .939 .25 .949 .25 .96 .25 .97 .25 .98 .25 .99 .25 1 0"/></svg>