<svg xmlns="http://www.w3.org/2000/svg" width="6em" viewBox="-0.04 -0.04 1.08 1.08"><title>ExponentialOut</title><path fill="none" stroke="var(--main-color)" stroke-width=".02" d="M0,0 L0,1 M1,0 L1,1 M0,0 m0.1,0 l0.1,0 m0.1,0 l0.1,0 m0.1,0 l0.1,0 m0.1,0 l0.1,0 m0.1,0 l0.1,0 M0,1 m0.1,0 l0.1,0 m0.1,0 l0.1,0 m0.1,0 l0.1,0 m0.1,0 l0.1,0 m0.1,0 l0.1,0"/><polyline fill="none" stroke="red" stroke-width=".04" points="0 1 .01 .932 .02 .869 .03 .81 .04 .755 .051 .704 .061 .657 .071 .612 .081 .571 .091 .532 .101 .496 .111 .462 .121 .431 .131 .402 .141 .375 .152 .349 .162 .326 .172 .303 .182 .283 .192 .264 .202 .246 .212 .229 .222 .214 .232 .199 .242 .186 .253 .173 .263 .161 .273 .15 .283 .14 .293 .13 .303 .122 .313 .113 .323 .106 .333 .098 .343 .092 .354 .085 .364 .08 .374 .074 .384 .069 .394 .064 .404 .06 .414 .056 .424 .052 .434 .048 .444 .045 .455 .042 .465 .039 .475 .036 .485 .034 .495 .031 .505 .029 .515 .027 .525 .025 .535 .024 .545 .022 .556 .02 .566 .019 .576 .018 .586 .016 .596 .015 .606 .014 .616 .013 .626 .012 .636 .011 .646 .01 .657 .01 .667 .009 .677 .008 .687 .008 .697 .007 .707 .006 .717 .006 .727 .005 .737 .005 .747 .005 .758 .004 .768 .004 .778 .004 .788 .003 .798 .003 .808 .003 .818 .002 .828 .002 .838 .002 .848 .002 .859 .002 .869 .001 .879 .001 .889 .001 .899 .001 .909 .001 .919 .001 .929 .001 .939 .001 .949 0 .96 0 .97 0 .98 0 .99 0 1 0"/></svg>