<svg xmlns="http://www.w3.org/2000/svg" width="6em" viewBox="-0.04 -0.04 1.08 1.08"><title>ExponentialIn</title><path fill="none" stroke="var(--main-color)" stroke-width=".02" d="M0,0 L0,1 M1,0 L1,1 M0,0 m0.1,0 l0.1,0 m0.1,0 l0.1,0 m0.1,0 l0.1,0 m0.1,0 l0.1,0 m0.1,0 l0.1,0 M0,1 m0.1,0 l0.1,0 m0.1,0 l0.1,0 m0.1,0 l0.1,0 m0.1,0 l0.1,0 m0.1,0 l0.1,0"/><polyline fill="none" stroke="red" stroke-width=".04" points="0 1 .01 1 .02 1 .03 1 .04 1 .051 1 .061 .999 .071 .999 .081 .999 .091 .999 .101 .999 .111 .999 .121 .999 .131 .999 .141 .998 .152 .998 .162 .998 .172 .998 .182 .998 .192 .997 .202 .997 .212 .997 .222 .996 .232 .996 .242 .996 .253 .995 .263 .995 .273 .995 .283 .994 .293 .994 .303 .993 .313 .992 .323 .992 .333 .991 .343 .99 .354 .99 .364 .989 .374 .988 .384 .987 .394 .986 .404 .985 .414 .984 .424 .982 .434 .981 .444 .98 .455 .978 .465 .976 .475 .975 .485 .973 .495 .971 .505 .969 .515 .966 .525 .964 .535 .961 .545 .958 .556 .955 .566 .952 .576 .948 .586 .944 .596 .94 .606 .936 .616 .931 .626 .926 .636 .92 .646 .915 .657 .908 .667 .902 .677 .894 .687 .887 .697 .878 .707 .87 .717 .86 .727 .85 .737 .839 .747 .827 .758 .814 .768 .801 .778 .786 .788 .771 .798 .754 .808 .736 .818 .717 .828 .697 .838 .674 .848 .651 .859 .625 .869 .598 .879 .569 .889 .538 .899 .504 .909 .468 .919 .429 .929 .388 .939 .343 .949 .296 .96 .244 .97 .19 .98 .131 .99 .068 1 0"/></svg>