<svg xmlns="http://www.w3.org/2000/svg" width="6em" viewBox="-0.04 -0.04 1.08 1.08"><title>ExponentialInOut</title><path fill="none" stroke="var(--main-color)" stroke-width=".02" d="M0,0 L0,1 M1,0 L1,1 M0,0 m0.1,0 l0.1,0 m0.1,0 l0.1,0 m0.1,0 l0.1,0 m0.1,0 l0.1,0 m0.1,0 l0.1,0 M0,1 m0.1,0 l0.1,0 m0.1,0 l0.1,0 m0.1,0 l0.1,0 m0.1,0 l0.1,0 m0.1,0 l0.1,0"/><polyline fill="none" stroke="red" stroke-width=".04" points="0 1 .01 1 .02 1 .03 1 .04 1 .051 1 .061 .999 .071 .999 .081 .999 .091 .999 .101 .999 .111 .998 .121 .998 .131 .997 .141 .997 .152 .996 .162 .996 .172 .995 .182 .994 .192 .993 .202 .992 .212 .991 .222 .99 .232 .988 .242 .986 .253 .984 .263 .982 .273 .979 .283 .976 .293 .972 .303 .968 .313 .963 .323 .957 .333 .951 .343 .943 .354 .935 .364 .925 .374 .914 .384 .9 .394 .885 .404 .868 .414 .848 .424 .825 .434 .799 .444 .769 .455 .734 .465 .694 .475 .648 .485 .595 .495 .534 .505 .466 .515 .405 .525 .352 .535 .306 .545 .266 .556 .231 .566 .201 .576 .175 .586 .152 .596 .132 .606 .115 .616 .1 .626 .086 .636 .075 .646 .065 .657 .057 .667 .049 .677 .043 .687 .037 .697 .032 .707 .028 .717 .024 .727 .021 .737 .018 .747 .016 .758 .014 .768 .012 .778 .01 .788 .009 .798 .008 .808 .007 .818 .006 .828 .005 .838 .004 .848 .004 .859 .003 .869 .003 .879 .002 .889 .002 .899 .001 .909 .001 .919 .001 .929 .001 .939 .001 .949 0 .96 0 .97 0 .98 0 .99 0 1 0"/></svg>