<svg xmlns="http://www.w3.org/2000/svg" width="6em" viewBox="-0.04 -0.04 1.08 1.08"><title>Linear</title><path fill="none" stroke="var(--main-color)" stroke-width=".02" d="M0,0 L0,1 M1,0 L1,1 M0,0 m0.1,0 l0.1,0 m0.1,0 l0.1,0 m0.1,0 l0.1,0 m0.1,0 l0.1,0 m0.1,0 l0.1,0 M0,1 m0.1,0 l0.1,0 m0.1,0 l0.1,0 m0.1,0 l0.1,0 m0.1,0 l0.1,0 m0.1,0 l0.1,0"/><polyline fill="none" stroke="red" stroke-width=".04" points="0 1 .01 .99 .02 .98 .03 .97 .04 .96 .051 .949 .061 .939 .071 .929 .081 .919 .091 .909 .101 .899 .111 .889 .121 .879 .131 .869 .141 .859 .152 .848 .162 .838 .172 .828 .182 .818 .192 .808 .202 .798 .212 .788 .222 .778 .232 .768 .242 .758 .253 .747 .263 .737 .273 .727 .283 .717 .293 .707 .303 .697 .313 .687 .323 .677 .333 .667 .343 .657 .354 .646 .364 .636 .374 .626 .384 .616 .394 .606 .404 .596 .414 .586 .424 .576 .434 .566 .444 .556 .455 .545 .465 .535 .475 .525 .485 .515 .495 .505 .505 .495 .515 .485 .525 .475 .535 .465 .545 .455 .556 .444 .566 .434 .576 .424 .586 .414 .596 .404 .606 .394 .616 .384 .626 .374 .636 .364 .646 .354 .657 .343 .667 .333 .677 .323 .687 .313 .697 .303 .707 .293 .717 .283 .727 .273 .737 .263 .747 .253 .758 .242 .768 .232 .778 .222 .788 .212 .798 .202 .808 .192 .818 .182 .828 .172 .838 .162 .848 .152 .859 .141 .869 .131 .879 .121 .889 .111 .899 .101 .909 .091 .919 .081 .929 .071 .939 .061 .949 .051 .96 .04 .97 .03 .98 .02 .99 .01 1 0"/></svg>