<svg xmlns="http://www.w3.org/2000/svg" width="6em" viewBox="-0.04 -0.04 1.08 1.08"><title>NoneSteps(4, None)</title><path fill="none" stroke="var(--main-color)" stroke-width=".02" d="M0,0 L0,1 M1,0 L1,1 M0,0 m0.1,0 l0.1,0 m0.1,0 l0.1,0 m0.1,0 l0.1,0 m0.1,0 l0.1,0 m0.1,0 l0.1,0 M0,1 m0.1,0 l0.1,0 m0.1,0 l0.1,0 m0.1,0 l0.1,0 m0.1,0 l0.1,0 m0.1,0 l0.1,0"/><polyline fill="none" stroke="red" stroke-width=".04" points="0 1 .01 1 .02 1 .03 1 .04 1 .051 1 .061 1 .071 1 .081 1 .091 1 .101 1 .111 1 .121 1 .131 1 .141 1 .152 1 .162 1 .172 1 .182 1 .192 1 .202 1 .212 1 .222 1 .232 1 .242 1 .253 .667 .263 .667 .273 .667 .283 .667 .293 .667 .303 .667 .313 .667 .323 .667 .333 .667 .343 .667 .354 .667 .364 .667 .374 .667 .384 .667 .394 .667 .404 .667 .414 .667 .424 .667 .434 .667 .444 .667 .455 .667 .465 .667 .475 .667 .485 .667 .495 .667 .505 .333 .515 .333 .525 .333 .535 .333 .545 .333 .556 .333 .566 .333 .576 .333 .586 .333 .596 .333 .606 .333 .616 .333 .626 .333 .636 .333 .646 .333 .657 .333 .667 .333 .677 .333 .687 .333 .697 .333 .707 .333 .717 .333 .727 .333 .737 .333 .747 .333 .758 0 .768 0 .778 0 .788 0 .798 0 .808 0 .818 0 .828 0 .838 0 .848 0 .859 0 .869 0 .879 0 .889 0 .899 0 .909 0 .919 0 .929 0 .939 0 .949 0 .96 0 .97 0 .98 0 .99 0 1 0"/></svg>