<svg xmlns="http://www.w3.org/2000/svg" width="6em" viewBox="-0.04 -0.04 1.08 1.08"><title>QuadraticInOut</title><path fill="none" stroke="var(--main-color)" stroke-width=".02" d="M0,0 L0,1 M1,0 L1,1 M0,0 m0.1,0 l0.1,0 m0.1,0 l0.1,0 m0.1,0 l0.1,0 m0.1,0 l0.1,0 m0.1,0 l0.1,0 M0,1 m0.1,0 l0.1,0 m0.1,0 l0.1,0 m0.1,0 l0.1,0 m0.1,0 l0.1,0 m0.1,0 l0.1,0"/><polyline fill="none" stroke="red" stroke-width=".04" points="0 1 .01 1 .02 .999 .03 .998 .04 .997 .051 .995 .061 .993 .071 .99 .081 .987 .091 .983 .101 .98 .111 .975 .121 .971 .131 .966 .141 .96 .152 .954 .162 .948 .172 .941 .182 .934 .192 .926 .202 .918 .212 .91 .222 .901 .232 .892 .242 .882 .253 .872 .263 .862 .273 .851 .283 .84 .293 .828 .303 .816 .313 .804 .323 .791 .333 .778 .343 .764 .354 .75 .364 .736 .374 .721 .384 .705 .394 .69 .404 .674 .414 .657 .424 .64 .434 .623 .444 .605 .455 .587 .465 .568 .475 .549 .485 .53 .495 .51 .505 .49 .515 .47 .525 .451 .535 .432 .545 .413 .556 .395 .566 .377 .576 .36 .586 .343 .596 .326 .606 .31 .616 .295 .626 .279 .636 .264 .646 .25 .657 .236 .667 .222 .677 .209 .687 .196 .697 .184 .707 .172 .717 .16 .727 .149 .737 .138 .747 .128 .758 .118 .768 .108 .778 .099 .788 .09 .798 .082 .808 .074 .818 .066 .828 .059 .838 .052 .848 .046 .859 .04 .869 .034 .879 .029 .889 .025 .899 .02 .909 .017 .919 .013 .929 .01 .939 .007 .949 .005 .96 .003 .97 .002 .98 .001 .99 0 1 0"/></svg>