<svg xmlns="http://www.w3.org/2000/svg" width="6em" viewBox="-0.04 -0.04 1.08 1.08"><title>QuadraticOut</title><path fill="none" stroke="var(--main-color)" stroke-width=".02" d="M0,0 L0,1 M1,0 L1,1 M0,0 m0.1,0 l0.1,0 m0.1,0 l0.1,0 m0.1,0 l0.1,0 m0.1,0 l0.1,0 m0.1,0 l0.1,0 M0,1 m0.1,0 l0.1,0 m0.1,0 l0.1,0 m0.1,0 l0.1,0 m0.1,0 l0.1,0 m0.1,0 l0.1,0"/><polyline fill="none" stroke="red" stroke-width=".04" points="0 1 .01 .98 .02 .96 .03 .94 .04 .921 .051 .902 .061 .882 .071 .864 .081 .845 .091 .826 .101 .808 .111 .79 .121 .772 .131 .755 .141 .737 .152 .72 .162 .703 .172 .686 .182 .669 .192 .653 .202 .637 .212 .621 .222 .605 .232 .589 .242 .574 .253 .559 .263 .544 .273 .529 .283 .514 .293 .5 .303 .486 .313 .472 .323 .458 .333 .444 .343 .431 .354 .418 .364 .405 .374 .392 .384 .38 .394 .367 .404 .355 .414 .343 .424 .331 .434 .32 .444 .309 .455 .298 .465 .287 .475 .276 .485 .265 .495 .255 .505 .245 .515 .235 .525 .225 .535 .216 .545 .207 .556 .198 .566 .189 .576 .18 .586 .172 .596 .163 .606 .155 .616 .147 .626 .14 .636 .132 .646 .125 .657 .118 .667 .111 .677 .104 .687 .098 .697 .092 .707 .086 .717 .08 .727 .074 .737 .069 .747 .064 .758 .059 .768 .054 .778 .049 .788 .045 .798 .041 .808 .037 .818 .033 .828 .029 .838 .026 .848 .023 .859 .02 .869 .017 .879 .015 .889 .012 .899 .01 .909 .008 .919 .007 .929 .005 .939 .004 .949 .003 .96 .002 .97 .001 .98 0 .99 0 1 0"/></svg>