<svg xmlns="http://www.w3.org/2000/svg" width="6em" viewBox="-0.04 -0.04 1.08 1.08"><title>QuadraticIn</title><path fill="none" stroke="var(--main-color)" stroke-width=".02" d="M0,0 L0,1 M1,0 L1,1 M0,0 m0.1,0 l0.1,0 m0.1,0 l0.1,0 m0.1,0 l0.1,0 m0.1,0 l0.1,0 m0.1,0 l0.1,0 M0,1 m0.1,0 l0.1,0 m0.1,0 l0.1,0 m0.1,0 l0.1,0 m0.1,0 l0.1,0 m0.1,0 l0.1,0"/><polyline fill="none" stroke="red" stroke-width=".04" points="0 1 .01 1 .02 1 .03 .999 .04 .998 .051 .997 .061 .996 .071 .995 .081 .993 .091 .992 .101 .99 .111 .988 .121 .985 .131 .983 .141 .98 .152 .977 .162 .974 .172 .971 .182 .967 .192 .963 .202 .959 .212 .955 .222 .951 .232 .946 .242 .941 .253 .936 .263 .931 .273 .926 .283 .92 .293 .914 .303 .908 .313 .902 .323 .896 .333 .889 .343 .882 .354 .875 .364 .868 .374 .86 .384 .853 .394 .845 .404 .837 .414 .828 .424 .82 .434 .811 .444 .802 .455 .793 .465 .784 .475 .775 .485 .765 .495 .755 .505 .745 .515 .735 .525 .724 .535 .713 .545 .702 .556 .691 .566 .68 .576 .669 .586 .657 .596 .645 .606 .633 .616 .62 .626 .608 .636 .595 .646 .582 .657 .569 .667 .556 .677 .542 .687 .528 .697 .514 .707 .5 .717 .486 .727 .471 .737 .456 .747 .441 .758 .426 .768 .411 .778 .395 .788 .379 .798 .363 .808 .347 .818 .331 .828 .314 .838 .297 .848 .28 .859 .263 .869 .245 .879 .228 .889 .21 .899 .192 .909 .174 .919 .155 .929 .136 .939 .118 .949 .098 .96 .079 .97 .06 .98 .04 .99 .02 1 0"/></svg>