<svg xmlns="http://www.w3.org/2000/svg" width="6em" viewBox="-0.04 -0.04 1.08 1.08"><title>QuarticIn</title><path fill="none" stroke="var(--main-color)" stroke-width=".02" d="M0,0 L0,1 M1,0 L1,1 M0,0 m0.1,0 l0.1,0 m0.1,0 l0.1,0 m0.1,0 l0.1,0 m0.1,0 l0.1,0 m0.1,0 l0.1,0 M0,1 m0.1,0 l0.1,0 m0.1,0 l0.1,0 m0.1,0 l0.1,0 m0.1,0 l0.1,0 m0.1,0 l0.1,0"/><polyline fill="none" stroke="red" stroke-width=".04" points="0 1 .01 1 .02 1 .03 1 .04 1 .051 1 .061 1 .071 1 .081 1 .091 1 .101 1 .111 1 .121 1 .131 1 .141 1 .152 .999 .162 .999 .172 .999 .182 .999 .192 .999 .202 .998 .212 .998 .222 .998 .232 .997 .242 .997 .253 .996 .263 .995 .273 .994 .283 .994 .293 .993 .303 .992 .313 .99 .323 .989 .333 .988 .343 .986 .354 .984 .364 .983 .374 .98 .384 .978 .394 .976 .404 .973 .414 .971 .424 .968 .434 .964 .444 .961 .455 .957 .465 .953 .475 .949 .485 .945 .495 .94 .505 .935 .515 .93 .525 .924 .535 .918 .545 .911 .556 .905 .566 .898 .576 .89 .586 .882 .596 .874 .606 .865 .616 .856 .626 .846 .636 .836 .646 .825 .657 .814 .667 .802 .677 .79 .687 .777 .697 .764 .707 .75 .717 .735 .727 .72 .737 .704 .747 .688 .758 .671 .768 .653 .778 .634 .788 .615 .798 .595 .808 .574 .818 .552 .828 .529 .838 .506 .848 .482 .859 .457 .869 .431 .879 .404 .889 .376 .899 .347 .909 .317 .919 .286 .929 .254 .939 .221 .949 .187 .96 .152 .97 .116 .98 .078 .99 .04 1 0"/></svg>