<svg xmlns="http://www.w3.org/2000/svg" width="6em" viewBox="-0.04 -0.04 1.08 1.08"><title>QuarticOut</title><path fill="none" stroke="var(--main-color)" stroke-width=".02" d="M0,0 L0,1 M1,0 L1,1 M0,0 m0.1,0 l0.1,0 m0.1,0 l0.1,0 m0.1,0 l0.1,0 m0.1,0 l0.1,0 m0.1,0 l0.1,0 M0,1 m0.1,0 l0.1,0 m0.1,0 l0.1,0 m0.1,0 l0.1,0 m0.1,0 l0.1,0 m0.1,0 l0.1,0"/><polyline fill="none" stroke="red" stroke-width=".04" points="0 1 .01 .96 .02 .922 .03 .884 .04 .848 .051 .813 .061 .779 .071 .746 .081 .714 .091 .683 .101 .653 .111 .624 .121 .596 .131 .569 .141 .543 .152 .518 .162 .494 .172 .471 .182 .448 .192 .426 .202 .405 .212 .385 .222 .366 .232 .347 .242 .329 .253 .312 .263 .296 .273 .28 .283 .265 .293 .25 .303 .236 .313 .223 .323 .21 .333 .198 .343 .186 .354 .175 .364 .164 .374 .154 .384 .144 .394 .135 .404 .126 .414 .118 .424 .11 .434 .102 .444 .095 .455 .089 .465 .082 .475 .076 .485 .07 .495 .065 .505 .06 .515 .055 .525 .051 .535 .047 .545 .043 .556 .039 .566 .036 .576 .032 .586 .029 .596 .027 .606 .024 .616 .022 .626 .02 .636 .017 .646 .016 .657 .014 .667 .012 .677 .011 .687 .01 .697 .008 .707 .007 .717 .006 .727 .006 .737 .005 .747 .004 .758 .003 .768 .003 .778 .002 .788 .002 .798 .002 .808 .001 .818 .001 .828 .001 .838 .001 .848 .001 .859 0 .869 0 .879 0 .889 0 .899 0 .909 0 .919 0 .929 0 .939 0 .949 0 .96 0 .97 0 .98 0 .99 0 1 0"/></svg>