<svg xmlns="http://www.w3.org/2000/svg" width="6em" viewBox="-0.04 -0.04 1.08 1.08"><title>QuarticInOut</title><path fill="none" stroke="var(--main-color)" stroke-width=".02" d="M0,0 L0,1 M1,0 L1,1 M0,0 m0.1,0 l0.1,0 m0.1,0 l0.1,0 m0.1,0 l0.1,0 m0.1,0 l0.1,0 m0.1,0 l0.1,0 M0,1 m0.1,0 l0.1,0 m0.1,0 l0.1,0 m0.1,0 l0.1,0 m0.1,0 l0.1,0 m0.1,0 l0.1,0"/><polyline fill="none" stroke="red" stroke-width=".04" points="0 1 .01 1 .02 1 .03 1 .04 1 .051 1 .061 1 .071 1 .081 1 .091 .999 .101 .999 .111 .999 .121 .998 .131 .998 .141 .997 .152 .996 .162 .995 .172 .993 .182 .991 .192 .989 .202 .987 .212 .984 .222 .98 .232 .977 .242 .972 .253 .967 .263 .962 .273 .956 .283 .949 .293 .941 .303 .933 .313 .923 .323 .913 .333 .901 .343 .889 .354 .875 .364 .86 .374 .844 .384 .826 .394 .807 .404 .787 .414 .765 .424 .741 .434 .715 .444 .688 .455 .658 .465 .627 .475 .594 .485 .558 .495 .52 .505 .48 .515 .442 .525 .406 .535 .373 .545 .342 .556 .312 .566 .285 .576 .259 .586 .235 .596 .213 .606 .193 .616 .174 .626 .156 .636 .14 .646 .125 .657 .111 .667 .099 .677 .087 .687 .077 .697 .067 .707 .059 .717 .051 .727 .044 .737 .038 .747 .033 .758 .028 .768 .023 .778 .02 .788 .016 .798 .013 .808 .011 .818 .009 .828 .007 .838 .005 .848 .004 .859 .003 .869 .002 .879 .002 .889 .001 .899 .001 .909 .001 .919 0 .929 0 .939 0 .949 0 .96 0 .97 0 .98 0 .99 0 1 0"/></svg>