<svg xmlns="http://www.w3.org/2000/svg" width="6em" viewBox="-0.04 -0.04 1.08 1.08"><title>QuinticOut</title><path fill="none" stroke="var(--main-color)" stroke-width=".02" d="M0,0 L0,1 M1,0 L1,1 M0,0 m0.1,0 l0.1,0 m0.1,0 l0.1,0 m0.1,0 l0.1,0 m0.1,0 l0.1,0 m0.1,0 l0.1,0 M0,1 m0.1,0 l0.1,0 m0.1,0 l0.1,0 m0.1,0 l0.1,0 m0.1,0 l0.1,0 m0.1,0 l0.1,0"/><polyline fill="none" stroke="red" stroke-width=".04" points="0 1 .01 .951 .02 .903 .03 .857 .04 .814 .051 .772 .061 .732 .071 .693 .081 .656 .091 .621 .101 .587 .111 .555 .121 .524 .131 .495 .141 .467 .152 .44 .162 .414 .172 .39 .182 .367 .192 .345 .202 .324 .212 .304 .222 .285 .232 .267 .242 .25 .253 .233 .263 .218 .273 .203 .283 .19 .293 .177 .303 .164 .313 .153 .323 .142 .333 .132 .343 .122 .354 .113 .364 .104 .374 .096 .384 .089 .394 .082 .404 .075 .414 .069 .424 .063 .434 .058 .444 .053 .455 .048 .465 .044 .475 .04 .485 .036 .495 .033 .505 .03 .515 .027 .525 .024 .535 .022 .545 .019 .556 .017 .566 .015 .576 .014 .586 .012 .596 .011 .606 .009 .616 .008 .626 .007 .636 .006 .646 .006 .657 .005 .667 .004 .677 .004 .687 .003 .697 .003 .707 .002 .717 .002 .727 .002 .737 .001 .747 .001 .758 .001 .768 .001 .778 .001 .788 0 .798 0 .808 0 .818 0 .828 0 .838 0 .848 0 .859 0 .869 0 .879 0 .889 0 .899 0 .909 0 .919 0 .929 0 .939 0 .949 0 .96 0 .97 0 .98 0 .99 0 1 0"/></svg>