<svg xmlns="http://www.w3.org/2000/svg" width="6em" viewBox="-0.04 -0.04 1.08 1.08"><title>QuinticInOut</title><path fill="none" stroke="var(--main-color)" stroke-width=".02" d="M0,0 L0,1 M1,0 L1,1 M0,0 m0.1,0 l0.1,0 m0.1,0 l0.1,0 m0.1,0 l0.1,0 m0.1,0 l0.1,0 m0.1,0 l0.1,0 M0,1 m0.1,0 l0.1,0 m0.1,0 l0.1,0 m0.1,0 l0.1,0 m0.1,0 l0.1,0 m0.1,0 l0.1,0"/><polyline fill="none" stroke="red" stroke-width=".04" points="0 1 .01 1 .02 1 .03 1 .04 1 .051 1 .061 1 .071 1 .081 1 .091 1 .101 1 .111 1 .121 1 .131 .999 .141 .999 .152 .999 .162 .998 .172 .998 .182 .997 .192 .996 .202 .995 .212 .993 .222 .991 .232 .989 .242 .987 .253 .984 .263 .98 .273 .976 .283 .971 .293 .965 .303 .959 .313 .952 .323 .944 .333 .934 .343 .924 .354 .912 .364 .898 .374 .883 .384 .867 .394 .848 .404 .828 .414 .805 .424 .78 .434 .753 .444 .723 .455 .69 .465 .653 .475 .614 .485 .571 .495 .525 .505 .475 .515 .429 .525 .386 .535 .347 .545 .31 .556 .277 .566 .247 .576 .22 .586 .195 .596 .172 .606 .152 .616 .133 .626 .117 .636 .102 .646 .088 .657 .076 .667 .066 .677 .056 .687 .048 .697 .041 .707 .035 .717 .029 .727 .024 .737 .02 .747 .016 .758 .013 .768 .011 .778 .009 .788 .007 .798 .005 .808 .004 .818 .003 .828 .002 .838 .002 .848 .001 .859 .001 .869 .001 .879 0 .889 0 .899 0 .909 0 .919 0 .929 0 .939 0 .949 0 .96 0 .97 0 .98 0 .99 0 1 0"/></svg>