<svg xmlns="http://www.w3.org/2000/svg" width="6em" viewBox="-0.04 -0.04 1.08 1.08"><title>QuinticIn</title><path fill="none" stroke="var(--main-color)" stroke-width=".02" d="M0,0 L0,1 M1,0 L1,1 M0,0 m0.1,0 l0.1,0 m0.1,0 l0.1,0 m0.1,0 l0.1,0 m0.1,0 l0.1,0 m0.1,0 l0.1,0 M0,1 m0.1,0 l0.1,0 m0.1,0 l0.1,0 m0.1,0 l0.1,0 m0.1,0 l0.1,0 m0.1,0 l0.1,0"/><polyline fill="none" stroke="red" stroke-width=".04" points="0 1 .01 1 .02 1 .03 1 .04 1 .051 1 .061 1 .071 1 .081 1 .091 1 .101 1 .111 1 .121 1 .131 1 .141 1 .152 1 .162 1 .172 1 .182 1 .192 1 .202 1 .212 1 .222 .999 .232 .999 .242 .999 .253 .999 .263 .999 .273 .998 .283 .998 .293 .998 .303 .997 .313 .997 .323 .996 .333 .996 .343 .995 .354 .994 .364 .994 .374 .993 .384 .992 .394 .991 .404 .989 .414 .988 .424 .986 .434 .985 .444 .983 .455 .981 .465 .978 .475 .976 .485 .973 .495 .97 .505 .967 .515 .964 .525 .96 .535 .956 .545 .952 .556 .947 .566 .942 .576 .937 .586 .931 .596 .925 .606 .918 .616 .911 .626 .904 .636 .896 .646 .887 .657 .878 .667 .868 .677 .858 .687 .847 .697 .836 .707 .823 .717 .81 .727 .797 .737 .782 .747 .767 .758 .75 .768 .733 .778 .715 .788 .696 .798 .676 .808 .655 .818 .633 .828 .61 .838 .586 .848 .56 .859 .533 .869 .505 .879 .476 .889 .445 .899 .413 .909 .379 .919 .344 .929 .307 .939 .268 .949 .228 .96 .186 .97 .143 .98 .097 .99 .049 1 0"/></svg>