<svg xmlns="http://www.w3.org/2000/svg" width="6em" viewBox="-0.04 -0.04 1.08 1.08"><title>SineIn</title><path fill="none" stroke="var(--main-color)" stroke-width=".02" d="M0,0 L0,1 M1,0 L1,1 M0,0 m0.1,0 l0.1,0 m0.1,0 l0.1,0 m0.1,0 l0.1,0 m0.1,0 l0.1,0 m0.1,0 l0.1,0 M0,1 m0.1,0 l0.1,0 m0.1,0 l0.1,0 m0.1,0 l0.1,0 m0.1,0 l0.1,0 m0.1,0 l0.1,0"/><polyline fill="none" stroke="red" stroke-width=".04" points="0 1 .01 1 .02 .999 .03 .999 .04 .998 .051 .997 .061 .995 .071 .994 .081 .992 .091 .99 .101 .987 .111 .985 .121 .982 .131 .979 .141 .975 .152 .972 .162 .968 .172 .964 .182 .959 .192 .955 .202 .95 .212 .945 .222 .94 .232 .934 .242 .928 .253 .922 .263 .916 .273 .91 .283 .903 .293 .896 .303 .889 .313 .881 .323 .874 .333 .866 .343 .858 .354 .85 .364 .841 .374 .833 .384 .824 .394 .815 .404 .805 .414 .796 .424 .786 .434 .776 .444 .766 .455 .756 .465 .745 .475 .735 .485 .724 .495 .713 .505 .701 .515 .69 .525 .679 .535 .667 .545 .655 .556 .643 .566 .631 .576 .618 .586 .606 .596 .593 .606 .58 .616 .567 .626 .554 .636 .541 .646 .527 .657 .514 .667 .5 .677 .486 .687 .472 .697 .458 .707 .444 .717 .43 .727 .415 .737 .401 .747 .386 .758 .372 .768 .357 .778 .342 .788 .327 .798 .312 .808 .297 .818 .282 .828 .266 .838 .251 .848 .236 .859 .22 .869 .205 .879 .189 .889 .174 .899 .158 .909 .142 .919 .127 .929 .111 .939 .095 .949 .079 .96 .063 .97 .048 .98 .032 .99 .016 1 0"/></svg>