<svg xmlns="http://www.w3.org/2000/svg" width="6em" viewBox="-0.04 -0.04 1.08 1.08"><title>SineOut</title><path fill="none" stroke="var(--main-color)" stroke-width=".02" d="M0,0 L0,1 M1,0 L1,1 M0,0 m0.1,0 l0.1,0 m0.1,0 l0.1,0 m0.1,0 l0.1,0 m0.1,0 l0.1,0 m0.1,0 l0.1,0 M0,1 m0.1,0 l0.1,0 m0.1,0 l0.1,0 m0.1,0 l0.1,0 m0.1,0 l0.1,0 m0.1,0 l0.1,0"/><polyline fill="none" stroke="red" stroke-width=".04" points="0 1 .01 .984 .02 .968 .03 .952 .04 .937 .051 .921 .061 .905 .071 .889 .081 .873 .091 .858 .101 .842 .111 .826 .121 .811 .131 .795 .141 .78 .152 .764 .162 .749 .172 .734 .182 .718 .192 .703 .202 .688 .212 .673 .222 .658 .232 .643 .242 .628 .253 .614 .263 .599 .273 .585 .283 .57 .293 .556 .303 .542 .313 .528 .323 .514 .333 .5 .343 .486 .354 .473 .364 .459 .374 .446 .384 .433 .394 .42 .404 .407 .414 .394 .424 .382 .434 .369 .444 .357 .455 .345 .465 .333 .475 .321 .485 .31 .495 .299 .505 .287 .515 .276 .525 .265 .535 .255 .545 .244 .556 .234 .566 .224 .576 .214 .586 .204 .596 .195 .606 .185 .616 .176 .626 .167 .636 .159 .646 .15 .657 .142 .667 .134 .677 .126 .687 .119 .697 .111 .707 .104 .717 .097 .727 .09 .737 .084 .747 .078 .758 .072 .768 .066 .778 .06 .788 .055 .798 .05 .808 .045 .818 .041 .828 .036 .838 .032 .848 .028 .859 .025 .869 .021 .879 .018 .889 .015 .899 .013 .909 .01 .919 .008 .929 .006 .939 .005 .949 .003 .96 .002 .97 .001 .98 .001 .99 0 1 0"/></svg>