<svg xmlns="http://www.w3.org/2000/svg" width="6em" viewBox="-0.04 -0.04 1.08 1.08"><title>SineInOut</title><path fill="none" stroke="var(--main-color)" stroke-width=".02" d="M0,0 L0,1 M1,0 L1,1 M0,0 m0.1,0 l0.1,0 m0.1,0 l0.1,0 m0.1,0 l0.1,0 m0.1,0 l0.1,0 m0.1,0 l0.1,0 M0,1 m0.1,0 l0.1,0 m0.1,0 l0.1,0 m0.1,0 l0.1,0 m0.1,0 l0.1,0 m0.1,0 l0.1,0"/><polyline fill="none" stroke="red" stroke-width=".04" points="0 1 .01 1 .02 .999 .03 .998 .04 .996 .051 .994 .061 .991 .071 .988 .081 .984 .091 .98 .101 .975 .111 .97 .121 .964 .131 .958 .141 .951 .152 .944 .162 .937 .172 .929 .182 .921 .192 .912 .202 .903 .212 .893 .222 .883 .232 .873 .242 .862 .253 .851 .263 .839 .273 .827 .283 .815 .293 .803 .303 .79 .313 .777 .323 .764 .333 .75 .343 .736 .354 .722 .364 .708 .374 .693 .384 .678 .394 .664 .404 .648 .414 .633 .424 .618 .434 .602 .444 .587 .455 .571 .465 .555 .475 .54 .485 .524 .495 .508 .505 .492 .515 .476 .525 .46 .535 .445 .545 .429 .556 .413 .566 .398 .576 .382 .586 .367 .596 .352 .606 .336 .616 .322 .626 .307 .636 .292 .646 .278 .657 .264 .667 .25 .677 .236 .687 .223 .697 .21 .707 .197 .717 .185 .727 .173 .737 .161 .747 .149 .758 .138 .768 .127 .778 .117 .788 .107 .798 .097 .808 .088 .818 .079 .828 .071 .838 .063 .848 .056 .859 .049 .869 .042 .879 .036 .889 .03 .899 .025 .909 .02 .919 .016 .929 .012 .939 .009 .949 .006 .96 .004 .97 .002 .98 .001 .99 0 1 0"/></svg>