<svg xmlns="http://www.w3.org/2000/svg" width="6em" viewBox="-0.04 -0.04 1.08 1.08"><title>SmootherStepOut</title><path fill="none" stroke="var(--main-color)" stroke-width=".02" d="M0,0 L0,1 M1,0 L1,1 M0,0 m0.1,0 l0.1,0 m0.1,0 l0.1,0 m0.1,0 l0.1,0 m0.1,0 l0.1,0 m0.1,0 l0.1,0 M0,1 m0.1,0 l0.1,0 m0.1,0 l0.1,0 m0.1,0 l0.1,0 m0.1,0 l0.1,0 m0.1,0 l0.1,0"/><polyline fill="none" stroke="red" stroke-width=".04" points="0 1 .01 .981 .02 .962 .03 .943 .04 .924 .051 .905 .061 .887 .071 .868 .081 .849 .091 .83 .101 .812 .111 .793 .121 .775 .131 .757 .141 .738 .152 .72 .162 .702 .172 .684 .182 .667 .192 .649 .202 .631 .212 .614 .222 .597 .232 .58 .242 .563 .253 .546 .263 .53 .273 .513 .283 .497 .293 .481 .303 .466 .313 .45 .323 .435 .333 .42 .343 .405 .354 .39 .364 .376 .374 .362 .384 .348 .394 .334 .404 .321 .414 .308 .424 .295 .434 .282 .444 .27 .455 .258 .465 .246 .475 .235 .485 .223 .495 .212 .505 .202 .515 .191 .525 .181 .535 .172 .545 .162 .556 .153 .566 .144 .576 .135 .586 .127 .596 .119 .606 .111 .616 .104 .626 .097 .636 .09 .646 .083 .657 .077 .667 .071 .677 .065 .687 .06 .697 .055 .707 .05 .717 .045 .727 .041 .737 .037 .747 .033 .758 .029 .768 .026 .778 .023 .788 .02 .798 .018 .808 .015 .818 .013 .828 .011 .838 .009 .848 .008 .859 .006 .869 .005 .879 .004 .889 .003 .899 .002 .909 .002 .919 .001 .929 .001 .939 .001 .949 0 .96 0 .97 0 .98 0 .99 0 1 0"/></svg>