<svg xmlns="http://www.w3.org/2000/svg" width="6em" viewBox="-0.04 -0.04 1.08 1.08"><title>SmoothStep</title><path fill="none" stroke="var(--main-color)" stroke-width=".02" d="M0,0 L0,1 M1,0 L1,1 M0,0 m0.1,0 l0.1,0 m0.1,0 l0.1,0 m0.1,0 l0.1,0 m0.1,0 l0.1,0 m0.1,0 l0.1,0 M0,1 m0.1,0 l0.1,0 m0.1,0 l0.1,0 m0.1,0 l0.1,0 m0.1,0 l0.1,0 m0.1,0 l0.1,0"/><polyline fill="none" stroke="red" stroke-width=".04" points="0 1 .01 1 .02 .999 .03 .997 .04 .995 .051 .993 .061 .989 .071 .986 .081 .981 .091 .977 .101 .971 .111 .966 .121 .959 .131 .953 .141 .946 .152 .938 .162 .93 .172 .922 .182 .913 .192 .904 .202 .894 .212 .884 .222 .874 .232 .863 .242 .852 .253 .841 .263 .829 .273 .817 .283 .805 .293 .793 .303 .78 .313 .767 .323 .754 .333 .741 .343 .727 .354 .713 .364 .699 .374 .685 .384 .671 .394 .657 .404 .642 .414 .628 .424 .613 .434 .598 .444 .583 .455 .568 .465 .553 .475 .538 .485 .523 .495 .508 .505 .492 .515 .477 .525 .462 .535 .447 .545 .432 .556 .417 .566 .402 .576 .387 .586 .372 .596 .358 .606 .343 .616 .329 .626 .315 .636 .301 .646 .287 .657 .273 .667 .259 .677 .246 .687 .233 .697 .22 .707 .207 .717 .195 .727 .183 .737 .171 .747 .159 .758 .148 .768 .137 .778 .126 .788 .116 .798 .106 .808 .096 .818 .087 .828 .078 .838 .07 .848 .062 .859 .054 .869 .047 .879 .041 .889 .034 .899 .029 .909 .023 .919 .019 .929 .014 .939 .011 .949 .007 .96 .005 .97 .003 .98 .001 .99 0 1 0"/></svg>