<svg xmlns="http://www.w3.org/2000/svg" width="6em" viewBox="-0.04 -0.04 1.08 1.08"><title>SmoothStepIn</title><path fill="none" stroke="var(--main-color)" stroke-width=".02" d="M0,0 L0,1 M1,0 L1,1 M0,0 m0.1,0 l0.1,0 m0.1,0 l0.1,0 m0.1,0 l0.1,0 m0.1,0 l0.1,0 m0.1,0 l0.1,0 M0,1 m0.1,0 l0.1,0 m0.1,0 l0.1,0 m0.1,0 l0.1,0 m0.1,0 l0.1,0 m0.1,0 l0.1,0"/><polyline fill="none" stroke="red" stroke-width=".04" points="0 1 .01 1 .02 .999 .03 .999 .04 .998 .051 .996 .061 .995 .071 .993 .081 .99 .091 .988 .101 .985 .111 .982 .121 .979 .131 .975 .141 .971 .152 .967 .162 .963 .172 .958 .182 .953 .192 .948 .202 .943 .212 .937 .222 .931 .232 .925 .242 .919 .253 .912 .263 .906 .273 .899 .283 .891 .293 .884 .303 .876 .313 .868 .323 .86 .333 .852 .343 .843 .354 .835 .364 .826 .374 .817 .384 .807 .394 .798 .404 .788 .414 .778 .424 .768 .434 .758 .444 .748 .455 .737 .465 .726 .475 .715 .485 .704 .495 .693 .505 .682 .515 .67 .525 .659 .535 .647 .545 .635 .556 .623 .566 .611 .576 .598 .586 .586 .596 .573 .606 .56 .616 .547 .626 .535 .636 .521 .646 .508 .657 .495 .667 .481 .677 .468 .687 .454 .697 .441 .707 .427 .717 .413 .727 .399 .737 .385 .747 .371 .758 .357 .768 .342 .778 .328 .788 .313 .798 .299 .808 .284 .818 .27 .828 .255 .838 .24 .848 .226 .859 .211 .869 .196 .879 .181 .889 .166 .899 .151 .909 .136 .919 .121 .929 .106 .939 .091 .949 .076 .96 .061 .97 .045 .98 .03 .99 .015 1 0"/></svg>