<svg xmlns="http://www.w3.org/2000/svg" width="6em" viewBox="-0.04 -0.04 1.08 1.08"><title>SmootherStepIn</title><path fill="none" stroke="var(--main-color)" stroke-width=".02" d="M0,0 L0,1 M1,0 L1,1 M0,0 m0.1,0 l0.1,0 m0.1,0 l0.1,0 m0.1,0 l0.1,0 m0.1,0 l0.1,0 m0.1,0 l0.1,0 M0,1 m0.1,0 l0.1,0 m0.1,0 l0.1,0 m0.1,0 l0.1,0 m0.1,0 l0.1,0 m0.1,0 l0.1,0"/><polyline fill="none" stroke="red" stroke-width=".04" points="0 1 .01 1 .02 1 .03 1 .04 1 .051 1 .061 .999 .071 .999 .081 .999 .091 .998 .101 .998 .111 .997 .121 .996 .131 .995 .141 .994 .152 .992 .162 .991 .172 .989 .182 .987 .192 .985 .202 .982 .212 .98 .222 .977 .232 .974 .242 .971 .253 .967 .263 .963 .273 .959 .283 .955 .293 .95 .303 .945 .313 .94 .323 .935 .333 .929 .343 .923 .354 .917 .364 .91 .374 .903 .384 .896 .394 .889 .404 .881 .414 .873 .424 .865 .434 .856 .444 .847 .455 .838 .465 .828 .475 .819 .485 .809 .495 .798 .505 .788 .515 .777 .525 .765 .535 .754 .545 .742 .556 .73 .566 .718 .576 .705 .586 .692 .596 .679 .606 .666 .616 .652 .626 .638 .636 .624 .646 .61 .657 .595 .667 .58 .677 .565 .687 .55 .697 .534 .707 .519 .717 .503 .727 .487 .737 .47 .747 .454 .758 .437 .768 .42 .778 .403 .788 .386 .798 .369 .808 .351 .818 .333 .828 .316 .838 .298 .848 .28 .859 .262 .869 .243 .879 .225 .889 .207 .899 .188 .909 .17 .919 .151 .929 .132 .939 .113 .949 .095 .96 .076 .97 .057 .98 .038 .99 .019 1 0"/></svg>