<svg xmlns="http://www.w3.org/2000/svg" width="6em" viewBox="-0.04 -0.04 1.08 1.08"><title>SmoothStepOut</title><path fill="none" stroke="var(--main-color)" stroke-width=".02" d="M0,0 L0,1 M1,0 L1,1 M0,0 m0.1,0 l0.1,0 m0.1,0 l0.1,0 m0.1,0 l0.1,0 m0.1,0 l0.1,0 m0.1,0 l0.1,0 M0,1 m0.1,0 l0.1,0 m0.1,0 l0.1,0 m0.1,0 l0.1,0 m0.1,0 l0.1,0 m0.1,0 l0.1,0"/><polyline fill="none" stroke="red" stroke-width=".04" points="0 1 .01 .985 .02 .97 .03 .955 .04 .939 .051 .924 .061 .909 .071 .894 .081 .879 .091 .864 .101 .849 .111 .834 .121 .819 .131 .804 .141 .789 .152 .774 .162 .76 .172 .745 .182 .73 .192 .716 .202 .701 .212 .687 .222 .672 .232 .658 .242 .643 .253 .629 .263 .615 .273 .601 .283 .587 .293 .573 .303 .559 .313 .546 .323 .532 .333 .519 .343 .505 .354 .492 .364 .479 .374 .465 .384 .453 .394 .44 .404 .427 .414 .414 .424 .402 .434 .389 .444 .377 .455 .365 .465 .353 .475 .341 .485 .33 .495 .318 .505 .307 .515 .296 .525 .285 .535 .274 .545 .263 .556 .252 .566 .242 .576 .232 .586 .222 .596 .212 .606 .202 .616 .193 .626 .183 .636 .174 .646 .165 .657 .157 .667 .148 .677 .14 .687 .132 .697 .124 .707 .116 .717 .109 .727 .101 .737 .094 .747 .088 .758 .081 .768 .075 .778 .069 .788 .063 .798 .057 .808 .052 .818 .047 .828 .042 .838 .037 .848 .033 .859 .029 .869 .025 .879 .021 .889 .018 .899 .015 .909 .012 .919 .01 .929 .007 .939 .005 .949 .004 .96 .002 .97 .001 .98 .001 .99 0 1 0"/></svg>