<svg xmlns="http://www.w3.org/2000/svg" width="6em" viewBox="-0.04 -0.04 1.08 1.08"><title>SmootherStep</title><path fill="none" stroke="var(--main-color)" stroke-width=".02" d="M0,0 L0,1 M1,0 L1,1 M0,0 m0.1,0 l0.1,0 m0.1,0 l0.1,0 m0.1,0 l0.1,0 m0.1,0 l0.1,0 m0.1,0 l0.1,0 M0,1 m0.1,0 l0.1,0 m0.1,0 l0.1,0 m0.1,0 l0.1,0 m0.1,0 l0.1,0 m0.1,0 l0.1,0"/><polyline fill="none" stroke="red" stroke-width=".04" points="0 1 .01 1 .02 1 .03 1 .04 .999 .051 .999 .061 .998 .071 .997 .081 .995 .091 .993 .101 .991 .111 .988 .121 .985 .131 .982 .141 .977 .152 .973 .162 .967 .172 .962 .182 .955 .192 .948 .202 .941 .212 .932 .222 .924 .232 .914 .242 .904 .253 .894 .263 .883 .273 .871 .283 .859 .293 .846 .303 .833 .313 .819 .323 .805 .333 .79 .343 .775 .354 .759 .364 .743 .374 .727 .384 .71 .394 .693 .404 .676 .414 .658 .424 .64 .434 .622 .444 .603 .455 .585 .465 .566 .475 .547 .485 .528 .495 .509 .505 .491 .515 .472 .525 .453 .535 .434 .545 .415 .556 .397 .566 .378 .576 .36 .586 .342 .596 .324 .606 .307 .616 .29 .626 .273 .636 .257 .646 .241 .657 .225 .667 .21 .677 .195 .687 .181 .697 .167 .707 .154 .717 .141 .727 .129 .737 .117 .747 .106 .758 .096 .768 .086 .778 .076 .788 .068 .798 .059 .808 .052 .818 .045 .828 .038 .838 .033 .848 .027 .859 .023 .869 .018 .879 .015 .889 .012 .899 .009 .909 .007 .919 .005 .929 .003 .939 .002 .949 .001 .96 .001 .97 0 .98 0 .99 0 1 0"/></svg>