<svg xmlns="http://www.w3.org/2000/svg" width="6em" viewBox="-0.04 -0.04 1.08 1.08"><title>StartSteps(4, Start)</title><path fill="none" stroke="var(--main-color)" stroke-width=".02" d="M0,0 L0,1 M1,0 L1,1 M0,0 m0.1,0 l0.1,0 m0.1,0 l0.1,0 m0.1,0 l0.1,0 m0.1,0 l0.1,0 m0.1,0 l0.1,0 M0,1 m0.1,0 l0.1,0 m0.1,0 l0.1,0 m0.1,0 l0.1,0 m0.1,0 l0.1,0 m0.1,0 l0.1,0"/><polyline fill="none" stroke="red" stroke-width=".04" points="0 .75 .01 .75 .02 .75 .03 .75 .04 .75 .051 .75 .061 .75 .071 .75 .081 .75 .091 .75 .101 .75 .111 .75 .121 .75 .131 .75 .141 .75 .152 .75 .162 .75 .172 .75 .182 .75 .192 .75 .202 .75 .212 .75 .222 .75 .232 .75 .242 .75 .253 .5 .263 .5 .273 .5 .283 .5 .293 .5 .303 .5 .313 .5 .323 .5 .333 .5 .343 .5 .354 .5 .364 .5 .374 .5 .384 .5 .394 .5 .404 .5 .414 .5 .424 .5 .434 .5 .444 .5 .455 .5 .465 .5 .475 .5 .485 .5 .495 .5 .505 .25 .515 .25 .525 .25 .535 .25 .545 .25 .556 .25 .566 .25 .576 .25 .586 .25 .596 .25 .606 .25 .616 .25 .626 .25 .636 .25 .646 .25 .657 .25 .667 .25 .677 .25 .687 .25 .697 .25 .707 .25 .717 .25 .727 .25 .737 .25 .747 .25 .758 0 .768 0 .778 0 .788 0 .798 0 .808 0 .818 0 .828 0 .838 0 .848 0 .859 0 .869 0 .879 0 .889 0 .899 0 .909 0 .919 0 .929 0 .939 0 .949 0 .96 0 .97 0 .98 0 .99 0 1 0"/></svg>